<?xml version="1.0" encoding="UTF-8" standalone="no"?>
<!-- Created with Inkscape (http://www.inkscape.org/) -->

<svg version="1.1" width="2048" height="2048" viewBox="0 0 2048 2048" xmlns="http://www.w3.org/2000/svg"
    xmlns:svg="http://www.w3.org/2000/svg">

    <path
        d="m 944.92275,1918.0511 c -65.67562,-1.5139 -163.22563,-6.431 -209.36133,-10.5528 -58.36695,-5.2148 -79.68109,-11.9893 -58.12178,-18.4738 27.89762,-8.391 137.82433,-16.381 250.14602,-18.182 l 64.62217,-1.0361 -11.01385,-5.8142 c -6.05761,-3.1978 -15.97888,-10.5863 -22.04727,-16.4187 l -11.03344,-10.6045 -14.17316,4.7727 c -12.01183,4.045 -17.39061,4.8798 -35.27161,5.4749 -25.70412,0.8556 -37.71071,-1.553 -56.51834,-11.3377 -24.72427,-12.8631 -46.24333,-40.2557 -52.1153,-66.3401 -2.20644,-9.8013 -3.68306,-10.6245 -19.72601,-10.9974 -4.5435,-0.105 -13.92253,-1.64 -20.84229,-3.4099 -56.48707,-14.4468 -87.98509,-66.0352 -75.59622,-123.8136 1.26772,-5.9125 1.07721,-6.2833 -5.57941,-10.8633 -38.24442,-26.3128 -51.13844,-83.897 -28.35668,-126.64 l 5.07582,-9.5233 -4.37839,-5.7403 c -7.31118,-9.5853 -13.87587,-28.8573 -14.89463,-43.726 -1.42405,-20.7836 3.27997,-39.302 14.87448,-58.5564 l 5.6706,-9.417 -4.83887,-6.1097 c -6.10255,-7.705 -13.67895,-24.4736 -16.04737,-35.5172 -4.65483,-21.7048 -0.76132,-51.2033 9.42064,-71.3736 l 4.96844,-9.8424 -5.81265,-9.9179 c -12.22839,-20.8645 -25.74835,-54.7123 -32.20052,-80.6153 -8.27006,-33.2011 -9.8077,-49.4177 -9.74107,-102.7349 0.0574,-46.0087 1.82083,-73.20836 6.52463,-100.6436 0.92691,-5.40627 0.32886,-6.3492 -11.58021,-18.25827 l -12.55757,-12.55759 1.18524,-102.65195 c 1.04394,-90.41194 1.49271,-102.99465 3.76375,-105.52605 1.41818,-1.58073 8.65932,-4.72883 16.0914,-6.99576 7.4321,-2.26692 13.51888,-4.99042 13.5262,-6.05217 0.04,-5.7828 3.78397,-34.30172 7.39121,-56.2995 7.27709,-44.37718 22.07842,-94.73189 39.4677,-134.27055 9.34922,-21.25768 11.97268,-26.29497 25.70642,-49.3588 34.50385,-57.94415 81.35709,-108.23076 137.59416,-147.67693 19.39455,-13.60386 32.04908,-21.03461 71.99934,-42.27802 19.96188,-10.61467 40.77629,-22.32723 46.25425,-26.02795 14.15884,-9.56518 28.33594,-23.56601 45.64524,-45.0777 18.54711,-23.05004 39.28241,-43.06338 49.13021,-47.41948 11.0213,-4.87526 22.5734,-3.2968 34.1316,4.66366 9.704,6.68337 27.7658,26.38214 47.3874,51.68208 6.9229,8.92626 15.4192,19.04034 18.8806,22.47575 7.723,7.6647 25.9842,18.58516 57.3305,34.28449 52.6772,26.38259 85.1865,47.6396 119.3736,78.05552 76.7541,68.28753 129.606,155.8113 154.7787,256.31663 5.3929,21.53196 11.198,54.06042 13.1784,73.8445 3.1999,31.96649 1.4274,28.4479 16.7125,33.17638 15.0177,4.64574 16.2314,5.28792 18.5806,9.83195 1.0633,2.05655 2.1137,40.1986 2.8666,104.09403 l 1.1884,100.84811 -12.2186,11.94733 -12.2187,11.94733 3.008,21.09842 c 9.7802,68.59294 7.8183,143.31834 -5.1345,195.56624 -6.5101,26.2602 -22.6308,63.8156 -35.5932,82.9195 l -6.1577,9.0753 4.0387,8.4383 c 7.4793,15.6285 10.8354,32.9939 9.9015,51.2345 -0.9798,19.1335 -4.6831,30.9635 -14.3269,45.7653 l -6.5946,10.1217 5.6787,10.2354 c 9.218,16.614 13.1436,31.9189 13.0328,50.8092 -0.1126,18.9926 -3.5839,31.5852 -12.8489,46.5955 l -5.9772,9.6836 5.1094,10.4789 c 7.8441,16.0879 10.5211,28.2991 10.4475,47.6604 -0.051,13.3044 -0.8616,19.3541 -3.6997,27.5902 -6.5177,18.9147 -21.0359,38.7762 -34.9966,47.8773 -7.0135,4.5721 -7.4125,5.215 -6.5466,10.5491 2.3612,14.5464 2.7713,32.6544 0.9731,42.9801 -8.1238,46.6501 -49.491,82.9389 -100.42,88.0924 l -11.8447,1.1985 -4.3848,13.057 c -6.1267,18.2441 -13.7346,30.0291 -28.1945,43.6749 -22.4781,21.2122 -45.8482,30.4013 -77.625,30.5223 -19.1351,0.073 -32.0819,-2.1703 -45.9209,-7.9566 -5.1723,-2.1628 -10.1595,-3.4655 -11.0825,-2.8952 -0.9228,0.5704 -4.6796,4.2935 -8.3483,8.2735 -3.6687,3.9801 -12.1589,10.8397 -18.867,15.2436 l -12.1969,8.0071 13.72,0.133 c 7.5459,0.073 15.5458,0.3775 17.7774,0.6756 2.2315,0.2983 26.6976,0.9665 54.369,1.485 75.4842,1.4143 182.1656,8.3659 215.8531,14.0654 34.5109,5.8387 33.0038,13.016 -3.8786,18.4718 -55.1865,8.1632 -179.8526,13.8768 -316.6552,14.5128 -59.3596,0.2759 -117.78601,0.2744 -129.83645,0 z m 126.57025,-77.167 c 17.0213,-4.8517 31.8361,-16.557 41.2152,-32.5644 4.3594,-7.4403 9.6225,-25.1177 8.1754,-27.459 -0.4802,-0.7772 -3.0518,-1.4129 -5.7147,-1.4129 -8.3954,0 -28.3646,-4.7706 -39.9272,-9.5387 -6.1239,-2.5253 -17.5271,-8.7155 -25.3405,-13.7559 -7.8132,-5.0406 -14.6304,-9.1644 -15.1493,-9.1644 -0.5187,0 -4.3274,2.4283 -8.4639,5.3966 -18.8205,13.5049 -37.74325,21.4752 -56.68905,23.8774 -6.72145,0.8522 -12.5347,1.8633 -12.91832,2.2468 -1.27654,1.2766 4.69749,19.4897 9.00057,27.4403 7.75935,14.3366 26.81568,29.3276 44.6009,35.0862 16.3213,5.2847 42.364,5.2199 61.2109,-0.1525 z m -149.29163,-25.9517 c 12.5609,-4.8956 12.1589,-3.8281 8.08324,-21.4657 -3.05785,-13.2329 -4.16245,-15.7837 -7.07083,-16.3286 -26.94721,-5.0492 -47.75909,-12.8302 -63.75617,-23.8364 -7.19277,-4.9488 -7.92276,-5.1177 -14.21038,-3.2868 -3.64547,1.0614 -11.55783,3.1581 -17.58305,4.6593 -12.81816,3.1935 -13.04411,3.8448 -6.13247,17.6763 10.55267,21.1177 29.38568,36.4933 53.60393,43.7632 9.08688,2.7277 38.95971,1.9779 47.06573,-1.1813 z m 285.48913,0.9674 c 15.002,-3.5362 28.6449,-11.3963 40.8435,-23.5308 10.6889,-10.633 20.5346,-26.9868 18.8656,-31.3361 -0.4694,-1.2233 -4.0199,-2.7162 -7.89,-3.3177 -3.8701,-0.6013 -14.4358,-3.3502 -23.479,-6.1082 l -16.4424,-5.0148 -8.7134,6.5522 c -14.7302,11.0767 -45.9763,24.6805 -56.6881,24.6805 -2.2054,0 -3.2714,1.614 -4.0193,6.0861 -0.5597,3.3474 -2.0535,9.8501 -3.3194,14.4506 -1.2659,4.6006 -2.3017,9.144 -2.3017,10.0967 0,1.4719 14.1842,6.4656 25.1559,8.8565 7.5092,1.6366 28.3335,0.8609 37.9883,-1.415 z m -240.85785,-69.137 c 5.35576,-0.884 15.66575,-4.455 22.91111,-7.9358 16.16244,-7.7645 27.85304,-19.641 33.10834,-33.6347 6.8008,-18.1098 1.8944,-44.2199 -9.9192,-52.7854 -4.1543,-3.012 -4.3966,-2.9975 -17.85253,1.0686 -19.38237,5.8567 -31.63688,7.4703 -56.84259,7.4842 -30.628,0.016 -56.94915,-4.7278 -76.93326,-13.8688 -4.77526,-2.1843 -9.44257,-3.9714 -10.3718,-3.9714 -5.76679,0 -10.5309,19.2942 -8.23989,33.3707 2.58444,15.8794 9.96654,29.0572 23.97394,42.7955 26.62587,26.1144 57.35164,34.5431 100.16588,27.4771 z m 196.68245,-2.2537 c 18.3256,-6.1442 28.0593,-12.3151 40.5908,-25.7337 21.4925,-23.0138 30.1651,-52.777 20.2719,-69.5698 -3.0163,-5.1198 -5.0401,-5.4557 -11.8014,-1.9593 -14.1322,7.308 -42.2856,13.3534 -68.4142,14.6906 -24.89,1.2738 -46.8064,-1.1085 -70.6767,-7.6824 -17.9518,-4.9442 -18.3811,-4.9839 -21.6703,-2.0073 -16.8775,15.2739 -12.0961,53.8868 9.0911,73.4166 9.7639,9 31.4438,19.3501 46.5649,22.2302 17.3695,3.3084 40.1909,1.9298 56.0439,-3.3849 z m -354.10917,-16.199 c 12.57497,-2.6485 20.28695,-5.4164 20.28695,-7.2813 0,-0.6719 -1.78169,-4.4175 -3.9593,-8.3234 -7.4577,-13.3774 -11.40259,-31.2 -11.36124,-51.3295 0.0322,-15.6951 -0.31399,-18.1579 -2.46446,-17.5304 -6.7845,1.9797 -29.59245,4.142 -43.59903,4.1334 -17.25709,-0.017 -41.67904,-3.2599 -55.29213,-7.3568 -11.661,-3.5094 -12.45206,-2.124 -11.54794,20.2263 1.02501,25.3388 20.42793,51.5755 46.26481,62.5594 16.86856,7.1712 41.57499,9.1351 61.67234,4.9023 z m 519.72097,-2.9572 c 31.4711,-11.0409 51.999,-35.699 53.664,-64.4611 0.4761,-8.2262 0.016,-14.6159 -1.2827,-17.7476 -2.2612,-5.459 -2.757,-5.6274 -9.2366,-3.1391 -8.2148,3.1545 -30.1536,6.392 -50.0116,7.3799 -17.3538,0.8634 -26.6173,0.2792 -56.8034,-3.5813 l -8.1148,-1.0378 -0.072,17.6235 c -0.079,19.6686 -2.8494,32.5676 -10.5328,49.0479 -2.6478,5.679 -4.8142,10.4979 -4.8142,10.7083 0,0.2106 2.7388,1.609 6.0861,3.1079 19.0346,8.5228 59.8004,9.5779 81.1172,2.0994 z m -356.89993,-92.7103 c 22.12499,-5.4429 40.14933,-17.3608 48.16323,-31.8457 4.5474,-8.2193 4.8689,-9.9329 4.8689,-25.948 0,-15.8653 -0.3641,-17.8558 -4.8689,-26.6214 -2.6779,-5.2104 -6.6947,-10.8073 -8.9263,-12.4373 -3.9567,-2.89 -4.5002,-2.86 -21.90986,1.2163 -13.01128,3.0464 -24.25418,4.4144 -41.45933,5.0448 -35.18199,1.2888 -60.91823,-2.4132 -88.90977,-12.7891 l -10.27036,-3.8069 -3.9245,4.8688 c -13.08814,16.2377 -11.96156,50.3105 2.3513,71.1136 10.60837,15.4186 32.94116,27.3422 61.23801,32.6949 15.68477,2.967 48.66952,2.1948 63.64758,-1.49 z m 201.75283,-0.6227 c 15.0015,-3.9696 32.248,-12.4789 41.5256,-20.4881 8.2842,-7.1519 17.5795,-25.1777 20.0813,-38.9428 2.103,-11.5711 -0.081,-25.231 -5.8594,-36.6324 -5.6321,-11.1144 -7.4219,-12.1241 -14.8644,-8.3867 -34.155,17.1518 -100.0759,20.1725 -148.0206,6.783 -14.3612,-4.0104 -15.2227,-3.5514 -22.2902,11.8809 -3.9676,8.6632 -4.6082,12.0827 -4.6209,24.6642 -0.016,12.5875 0.6106,15.9527 4.508,24.3443 2.4873,5.3558 7.2229,12.5307 10.5237,15.9443 10.967,11.342 31.1117,20.4377 53.0289,23.9433 14.4273,2.3077 52.2501,0.5251 65.988,-3.11 z m -390.22458,-11.7391 c 16.49883,-1.8396 32.60607,-6.8252 34.02871,-10.5326 0.46821,-1.22 -0.63299,-6.8089 -2.44705,-12.4196 -7.36568,-22.7806 -7.68865,-42.8295 -1.09124,-67.7405 1.28922,-4.868 2.03209,-9.1627 1.65083,-9.544 -0.38127,-0.3813 -5.2841,0.4452 -10.89519,1.8365 -39.30856,9.7478 -86.10318,6.6113 -118.80436,-7.9625 -17.83523,-7.9485 -18.53109,-7.8967 -23.53866,1.7561 -3.77167,7.2703 -4.18266,9.8476 -4.14107,25.9672 0.0631,24.4684 3.4927,33.146 19.27532,48.7712 19.6216,19.4256 46.15761,29.0405 86.64035,31.3926 2.04359,0.1189 10.73866,-0.5672 19.32236,-1.5244 z m 574.01208,-4.5266 c 21.2883,-5.735 35.9904,-13.7818 49.0404,-26.8413 15.8381,-15.8497 19.2593,-24.5359 19.2405,-48.851 -0.016,-15.2015 -0.5787,-19.1179 -3.818,-26.3731 -2.0922,-4.6863 -4.1035,-8.5205 -4.4696,-8.5205 -0.366,0 -4.1218,1.7513 -8.3461,3.892 -10.6212,5.3822 -37.791,13.5808 -51.4494,15.5249 -26.604,3.7871 -75.41,1.2 -94.646,-5.017 -2.9609,-0.9568 -5.8025,-1.3205 -6.3149,-0.8083 -0.5124,0.5123 0.9973,6.7676 3.3547,13.9003 6.7651,20.4688 5.7257,47.44 -2.5835,67.0443 -4.2101,9.9331 -3.0516,11.3178 13.0217,15.5651 18.5851,4.911 18.5007,4.903 47.4055,4.3974 21.0994,-0.369 29.4906,-1.1989 39.5647,-3.9128 z M 975.57226,1514.8093 c 25.33984,-5.9445 42.44504,-18.6915 48.15654,-35.8875 1.5527,-4.6747 2.7024,-13.2875 2.7024,-20.2442 0,-10.2774 -0.7657,-13.6635 -5.0636,-22.3941 -2.7851,-5.6571 -6.9843,-11.5442 -9.3317,-13.0822 -4.6933,-3.0751 -8.407,-2.909 -33.84255,1.5132 -19.55532,3.3998 -61.84245,3.3849 -82.07902,-0.029 -8.41409,-1.4194 -22.0034,-4.7814 -30.19849,-7.471 -14.53244,-4.7695 -14.9781,-4.8159 -18.05909,-1.8823 -4.84736,4.6157 -10.00173,15.9508 -11.88441,26.1351 -3.04852,16.491 2.75492,35.8152 14.89941,49.6122 11.10276,12.6133 37.49898,23.6874 64.63289,27.1152 15.43716,1.9503 44.24328,0.3269 60.06762,-3.3853 z m 175.77844,3.3173 c 42.2915,-4.0105 70.6209,-20.4798 78.8812,-45.8573 6.6287,-20.3642 3.6278,-43.6767 -7.0579,-54.83 l -4.2607,-4.4473 -12.5796,4.591 c -35.1858,12.8412 -92.9734,14.8946 -132.7654,4.7175 -6.6973,-1.7129 -13.8966,-2.6828 -15.9985,-2.1552 -4.5541,1.1431 -12.9338,13.2187 -15.574,22.4431 -1.0372,3.6235 -1.8502,12.1638 -1.8067,18.9791 0.2071,32.4334 22.9538,51.2054 68.499,56.5297 15.8071,1.8478 23.4309,1.8531 42.6626,0.029 z m -359.79729,-20.1137 c 5.35575,-1.4253 13.25361,-4.1969 17.55077,-6.159 6.42693,-2.9345 7.65169,-4.1574 6.90358,-6.8931 -7.05807,-25.8077 -7.19407,-46.8375 -0.43878,-67.8468 2.34809,-7.3028 3.40557,-12.9835 2.5189,-13.5314 -0.84051,-0.5195 -10.79217,-0.067 -22.11477,1.005 -20.59902,1.9506 -46.55441,1.2603 -66.29314,-1.763 -12.32504,-1.8879 -38.62042,-9.8893 -47.6673,-14.5046 -6.23567,-3.1813 -7.06524,-3.2539 -10.6144,-0.9284 -9.64971,6.3227 -17.86427,29.2599 -16.56196,46.2449 2.7044,35.2714 30.66123,59.5573 76.66773,66.6011 13.92672,2.1322 48.48933,0.8517 60.04937,-2.2247 z m 572.66289,-1.6692 c 34.4619,-8.7419 56.2837,-26.2977 63.6905,-51.2395 5.5275,-18.6129 0.4234,-45.3166 -10.6982,-55.9718 l -4.6276,-4.4336 -11.8899,5.6392 c -14.405,6.832 -35.596,11.9922 -59.2143,14.4192 -19.6267,2.0166 -62.1227,0.9445 -78.1315,-1.9715 -5.6242,-1.0243 -10.6793,-1.4093 -11.2332,-0.8554 -0.5539,0.5541 0.9344,6.6638 3.3071,13.5775 6.4996,18.9377 8.3021,33.8751 5.9931,49.6665 -1.0578,7.2346 -2.5884,14.3965 -3.4012,15.9153 -2.6761,5.0003 10.348,11.6283 30.9783,15.7651 4.9095,0.9844 10.3869,2.0774 12.1722,2.4291 1.7853,0.3516 13.1943,0.7239 25.3535,0.8273 18.5024,0.1575 24.6504,-0.4568 37.7012,-3.7674 z m -212.8636,-93.4009 c 33.8264,-2.4753 52.2128,-9.1343 68.1895,-24.6962 28.6669,-27.9222 26.6555,-83.0678 -3.8353,-105.1551 -8.0328,-5.819 -11.868,-6.008 -35.4555,-1.7474 -24.307,4.3905 -49.478,5.5827 -72.2216,3.4209 -44.364,-4.217 -44.9266,-4.2099 -50.6716,0.6242 -12.067,10.1537 -18.923,34.3909 -17.9892,63.5939 0.5837,18.2489 1.0037,20.406 5.9178,30.3879 5.3349,10.8365 13.3628,18.9634 24.1336,24.4312 7.3234,3.7177 24.8219,7.5722 41.0439,9.0412 19.4722,1.7632 18.1956,1.76 40.8884,0.099 z m -179.7761,-2.4787 c 26.15198,-4.5605 45.6747,-16.8784 52.7248,-33.2669 7.7897,-18.1075 7.5267,-54.7643 -0.5189,-72.3378 -4.5218,-9.8773 -15.2158,-21.2172 -21.4944,-22.793 -2.41429,-0.6059 -11.37941,-0.091 -19.92252,1.1451 -20.89035,3.0216 -60.88517,2.7169 -88.14128,-0.6714 -12.2632,-1.5244 -24.31365,-2.2718 -26.77877,-1.6606 -22.80602,5.6541 -38.90476,41.1101 -33.05677,72.8046 7.3566,39.8709 39.22763,58.8343 99.36645,59.1238 14.42968,0.07 29.24885,-0.8489 37.82139,-2.3438 z M 803.36407,1376.537 c 4.71059,-1.3067 8.92455,-2.7355 9.36432,-3.1752 0.43978,-0.4398 -0.67051,-6.932 -2.46728,-14.4272 -3.90544,-16.2913 -4.28517,-39.4997 -0.90714,-55.4409 1.27938,-6.0374 5.21383,-17.7227 8.74324,-25.9673 5.01402,-11.7124 5.94638,-15.2584 4.26417,-16.2169 -1.18411,-0.6749 -9.6758,-0.036 -18.8704,1.4206 -34.30393,5.4333 -84.12049,0.5258 -107.97419,-10.6368 -13.19381,-6.174 -16.86402,-6.2156 -23.5999,-0.267 -13.44457,11.8731 -21.86189,34.7339 -20.17199,54.7855 3.12772,37.1122 27.4879,59.7983 75.70175,70.4994 11.31539,2.5115 18.60873,2.9485 40.5739,2.4317 16.61935,-0.3912 30.02809,-1.5316 35.34352,-3.0059 z m 550.40813,-0.4509 c 47.6782,-7.7322 72.0661,-26.6243 78.4108,-60.7416 3.568,-19.1862 -3.8435,-45.5735 -17.1111,-60.9222 -6.3936,-7.3961 -5.1895,-7.485 -31.7757,2.3461 -21.2533,7.859 -39.0344,10.4444 -71.5853,10.4085 -19.6619,-0.021 -33.5539,-0.9155 -45.1442,-2.9052 -9.2084,-1.5805 -17.0823,-2.5337 -17.4979,-2.1182 -0.4155,0.4157 2.1328,6.1492 5.6631,12.7414 9.8503,18.394 12.1734,28.2261 12.2256,51.7482 0.042,18.8675 -1.3662,27.7611 -6.5235,41.2007 -2.3153,6.0336 19.7771,10.3858 53.7113,10.5809 14.7662,0.085 30.3569,-0.8352 39.6269,-2.3386 z M 970.89005,1246.9452 c 22.75998,-3.4932 40.02695,-11.3004 47.94125,-21.6766 5.6801,-7.4468 7.8125,-24.5411 6.0814,-48.7489 l -1.2766,-17.8525 -7.3033,-3.5595 c -10.7406,-5.2345 -49.03227,-19.6835 -60.59028,-22.8631 -7.92554,-2.1801 -17.10084,-2.757 -44.09037,-2.7718 -33.99356,-0.02 -34.10525,0 -43.00833,4.4623 -10.03547,5.038 -18.32696,14.5248 -23.28573,26.6426 -4.82858,11.7997 -4.58387,35.4167 0.50097,48.3508 11.1368,28.3282 44.87639,42.561 95.81778,40.4201 10.26519,-0.4315 23.41114,-1.513 29.21321,-2.4034 z m 198.00065,-0.4895 c 31.5408,-5.1973 47.7623,-15.6907 57.9345,-37.4769 4.0747,-8.727 4.5468,-11.5101 4.548,-26.8128 0,-16.0829 -0.3141,-17.7156 -5.4236,-28.0947 -6.0183,-12.2251 -14.0185,-19.3158 -25.2556,-22.3853 -4.4888,-1.2261 -15.607,-1.4561 -34.2378,-0.7084 -24.4506,0.9812 -29.2115,1.6484 -41.8383,5.8628 -15.9587,5.3265 -40.4509,15.5122 -54.6504,22.7278 -6.7808,3.4457 -11.7264,4.7793 -17.7247,4.7793 h -8.3197 v 19.1809 c 0,25.0307 2.5376,33.8549 12.5279,43.5644 4.0874,3.9727 10.1649,8.6172 13.5056,10.3215 5.502,2.8069 25.421,8.5141 35.6388,10.211 10.0104,1.6626 50.6669,0.9113 63.2953,-1.1696 z m 166.8227,-7.5325 c 41.4468,-4.4796 66.904,-16.4828 75.5551,-35.6247 5.0623,-11.2013 5.6715,-33.9296 1.2912,-48.1807 -5.6999,-18.5451 -20.9047,-34.4891 -32.9606,-34.5633 -2.3834,-0.016 -12.9731,1.9201 -23.5329,4.2997 -17.0438,3.8406 -22.753,4.3417 -50.8473,4.4631 -17.4061,0.075 -36.9186,-0.1915 -43.3611,-0.5925 -6.4423,-0.4011 -12.2502,-0.1923 -12.9064,0.4638 -0.6561,0.6562 0.1461,4.6358 1.7822,8.844 6.8414,17.5938 7.9661,23.8401 8.0987,44.9789 0.1168,18.6135 -0.339,22.3757 -3.8708,31.9429 -3.9366,10.6638 -3.952,10.9009 -0.9315,14.2385 8.0339,8.8776 46.8219,13.498 81.6834,9.7303 z m -527.93043,-3.8684 c 5.35576,-1.4895 11.34415,-3.7592 13.30754,-5.0439 l 3.56982,-2.3356 -3.04063,-8.8378 c -1.67233,-4.8608 -3.97197,-14.3806 -5.11029,-21.1551 -2.62906,-15.6463 -0.20637,-37.0573 6.13609,-54.2288 4.24973,-11.5056 4.30521,-12.0519 1.43738,-14.1489 -1.64064,-1.1996 -3.55903,-1.8252 -4.26308,-1.3901 -0.70405,0.4351 -14.29014,0.7982 -30.19133,0.8066 -29.66498,0.016 -43.9557,-1.7364 -67.82955,-8.317 -15.10977,-4.1648 -18.3537,-3.9662 -27.2384,1.6684 -16.22562,10.29 -25.63065,30.5674 -25.62993,55.2586 6.3e-4,22.1142 6.41042,35.0635 21.69579,43.83 10.26427,5.887 29.81945,12.5662 45.47129,15.5312 15.90442,3.0127 58.46057,2.0407 71.6853,-1.6376 z m 662.36063,-110.8952 c 4.4166,-27.0747 6.2491,-74.7837 4.2078,-109.5489 -1.9123,-32.57 -4.5058,-53.13267 -6.7015,-53.13267 -0.6275,0 -5.1139,3.39549 -9.9701,7.54555 -4.8561,4.15007 -14.4893,11.93668 -21.4071,17.30362 -6.9179,5.3669 -12.5779,10.2122 -12.5779,10.7674 0,0.5552 2.6078,5.0016 5.7955,9.8809 21.3139,32.6264 32.8435,69.6704 35.8198,115.0853 0.59,9.003 1.4579,15.984 1.9288,15.5131 0.4709,-0.4709 1.778,-6.5074 2.9047,-13.4143 z m -400.2532,-1.023 c 8.4799,-3.0102 34.0415,-12.0574 56.8034,-20.1048 36.7764,-13.0022 64.0563,-23.1759 112.7955,-42.0656 93.5123,-36.2424 161.0579,-76.7889 230.0539,-138.09764 l 19.0698,-16.94505 v -45.66148 c 0,-25.11384 -0.4803,-64.67201 -1.063,-87.90706 l -1.0598,-42.24555 -26.1215,-6.22168 c -30.2235,-7.19872 -65.6803,-18.25965 -96.2571,-30.02785 -105.7511,-40.70089 -230.403,-108.33541 -307.484,-166.83684 -5.065,-3.84397 -10.059,-6.98904 -11.0978,-6.98904 -1.039,0 -7.8501,4.81419 -15.1357,10.69824 -15.5024,12.52014 -54.99901,38.98938 -83.84515,56.19016 -95.90103,57.1852 -242.49163,120.47947 -324.3817,140.06021 l -17.60033,4.20841 -1.04231,12.33067 c -0.57652,6.78186 -1.04557,46.30695 -1.04557,87.83353 v 75.50287 l 12.46328,11.48614 c 27.48491,25.33006 61.96183,51.35871 96.27476,72.68346 34.06267,21.1692 80.83878,44.7215 133.06283,66.9985 59.21318,25.2584 189.59539,70.6296 202.88139,70.5999 4.134,-0.016 14.0107,-2.3947 22.7291,-5.4895 z m -137.89199,-96.9375 c -9.23555,-2.79 -14.41864,-7.4791 -16.46641,-14.8968 -1.40329,-5.0831 -1.60504,-48.4862 -0.79354,-170.71761 l 1.08815,-163.9017 5.14576,-5.30908 c 11.56523,-11.93228 26.8289,-15.10295 35.15483,-7.30256 l 4.76384,4.46313 0.90525,169.5989 c 0.52942,99.18221 0.29475,172.22762 -0.56518,175.93002 -0.80875,3.4821 -2.9222,7.7827 -4.69658,9.5571 -3.82716,3.8273 -16.12507,5.1196 -24.53612,2.5786 z m 205.65039,0.1741 c -7.9507,-4.9302 -7.7091,0.7416 -7.7091,-180.93652 0,-183.66274 -0.3815,-175.47503 8.4667,-181.67257 9.1544,-6.41202 32.0251,0.0457 38.6515,10.91345 3.1047,5.0919 3.1815,9.19765 3.1875,170.43398 0,138.55866 -0.3611,165.92636 -2.2694,169.61636 -3.5671,6.8982 -14.3284,12.0334 -26.7622,12.7705 -6.0626,0.3595 -11.9596,-0.1298 -13.565,-1.1252 z m 96.672,-30.7509 c -1.9501,-0.8261 -4.3237,-2.9559 -5.2746,-4.7328 -1.1846,-2.2133 -1.7291,-46.64222 -1.7291,-141.06987 0,-136.35596 0.036,-137.88444 3.3162,-142.055 4.7505,-6.03936 11.9483,-6.8823 23.1094,-2.70641 6.3471,2.37475 10.6821,5.29428 13.6617,9.20072 l 4.3645,5.72219 -0.097,130.20999 c -0.1101,147.13118 0.962,135.73918 -13.3578,141.89938 -9.5472,4.1071 -19.2603,5.5369 -23.9928,3.5318 z m -387.20635,-1.8281 c -8.63974,-2.0354 -18.63931,-7.4281 -20.61322,-11.1163 -2.40001,-4.48449 -2.31097,-259.095 0.093,-265.99106 2.52201,-7.23465 17.64379,-16.50472 26.92325,-16.50472 4.99288,0 7.79457,0.97618 10.19424,3.55193 3.27756,3.51805 3.30914,4.89734 3.30914,144.54978 0,94.08973 -0.55892,142.04227 -1.68005,144.13707 -1.84293,3.4435 -7.59861,3.8772 -18.22636,1.3733 z m -89.30268,-38.17771 c -14.58585,-4.48315 -13.83769,1.72962 -13.03621,-108.25216 0.38501,-52.83251 1.04685,-97.73196 1.47073,-99.77658 0.4525,-2.1826 3.89774,-5.70059 8.34431,-8.52052 9.31182,-5.90538 19.78458,-6.56319 24.79064,-1.55713 3.17932,3.17932 3.24591,5.40986 3.24591,108.73806 0,103.3282 -0.0665,105.55873 -3.24591,108.73805 -3.83722,3.83721 -10.50215,4.03196 -21.56947,0.63028 z m 558.17813,-2.42917 c -2.3921,-3.41533 -2.6561,-14.07948 -2.6561,-107.30029 0,-101.34412 0.068,-103.57591 3.2459,-106.75397 6.1091,-6.10911 22.7326,-3.32348 30.2286,5.06544 3.4126,3.81922 3.4592,4.88666 4.3222,99.07875 0.7935,86.63057 0.6289,95.7054 -1.8268,100.62328 -3.2269,6.46174 -12.279,11.31305 -23.0386,12.3469 -6.5938,0.63359 -7.9765,0.22185 -10.2752,-3.06011 z M 680.75251,918.19494 c -11.68826,-4.13615 -11.42791,-2.11419 -10.51837,-81.68452 0.52726,-46.12759 1.40356,-71.34289 2.52813,-72.7459 3.04073,-3.7936 13.81055,-8.4019 19.63567,-8.4019 3.64631,0 7.27172,1.39542 10.20813,3.92909 l 4.55363,3.9291 -0.48293,75.19 -0.48294,75.19002 -4.0707,3.65165 c -4.7379,4.25018 -11.21604,4.53586 -21.37062,0.94246 z m 711.14039,-3.95141 c -2.9283,-3.23414 -3.1165,-7.2673 -3.5606,-76.28953 l -0.4688,-72.87485 4.0466,-4.0468 c 7.1763,-7.17622 24.08,-4.54689 31.5122,4.90168 3.4757,4.41865 3.5183,5.25877 3.5183,69.22443 0,73.9783 0,73.95609 -11.7053,79.2702 -9.4741,4.29991 -19.3525,4.22158 -23.3424,-0.18513 z M 630.96489,1073.5498 c 5.1767,-19.5204 14.56628,-40.9225 26.64512,-60.7335 l 9.50272,-15.5858 -6.75528,-5.2386 c -3.71542,-2.8812 -13.54457,-10.64834 -21.84261,-17.26027 -8.29801,-6.61195 -15.54581,-11.5632 -16.10621,-11.00278 -2.12854,2.12851 -5.24928,50.24965 -5.37975,82.95435 -0.12557,31.4933 2.02724,66.9137 4.53763,74.656 0.61571,1.899 1.94057,-4.1624 3.19264,-14.6066 1.17712,-9.8189 3.96969,-24.7512 6.20574,-33.1828 z m 258.64212,30.0743 c -0.37193,-0.3706 -5.78856,-2.5404 -12.03693,-4.8216 -8.18893,-2.9897 -10.27395,-3.3678 -7.46816,-1.3547 4.68253,3.3599 12.79658,6.5572 17.07065,6.7268 1.71086,0.068 2.80635,-0.1798 2.43444,-0.5505 z m 456.44139,-3.3856 c 20.2828,-4.1202 37.5147,-15.1315 44.3426,-28.3354 5.9227,-11.4533 5.8535,-29.239 -0.1659,-42.6667 -2.9714,-6.6281 -4.663,-7.2901 -9.6692,-3.7836 -12.9168,9.0472 -65.2679,35.304 -96.2126,48.2556 -27.1801,11.3759 -28.9543,12.3427 -30.0016,16.3478 -2.8562,10.9225 55.9305,17.4497 91.7067,10.1823 z m -534.53185,-1.6577 c 12.73525,-2.8967 16.55337,-5.4807 16.55337,-11.2038 0,-3.2079 -3.10613,-5.0764 -23.12713,-13.9129 -35.05994,-15.4742 -83.53983,-39.4208 -95.14585,-46.9971 -5.69053,-3.7148 -11.3124,-6.3834 -12.49304,-5.9304 -7.16111,2.748 -10.97561,26.7865 -6.62521,41.7513 6.52054,22.4299 21.94709,32.621 57.69504,38.1142 17.26987,2.6537 47.27251,1.7883 63.14282,-1.8213 z m 396.16905,0.8387 c 4.2884,-2.5073 -4.6012,-1.7445 -11.2047,0.9613 l -5.6803,2.3277 7.1473,-0.8873 c 3.931,-0.4879 8.313,-1.5688 9.7377,-2.4017 z M 666.5858,684.77343 c 15.75833,-4.65207 33.03966,-10.98209 57.70693,-21.1376 127.2358,-52.383 214.95801,-99.83874 295.19097,-159.69164 11.1055,-8.2846 21.939,-15.72724 24.0747,-16.53916 5.2548,-1.99788 10.0114,0.47219 33.6353,17.46655 68.4502,49.24125 171.8871,108.1285 247.5007,140.90371 45.3132,19.64132 117.1823,46.29205 124.8358,46.29205 1.734,0 1.6735,-1.1088 -1.5536,-28.40173 -4.012,-33.93177 -19.5309,-91.29574 -35.0205,-129.4476 -22.1322,-54.51389 -54.9684,-102.76031 -101.9686,-149.82385 -39.7488,-39.80211 -71.8501,-62.31206 -136.4165,-95.65767 -15.1746,-7.83702 -35.1483,-18.20829 -44.386,-23.04726 -9.2379,-4.83898 -17.7458,-8.43369 -18.9065,-7.98826 -1.1607,0.44542 -2.5188,3.81276 -4.1523,7.00958 -7.5599,13.6191 -10.8865,29.29013 -14.3735,44.37143 l -11.0682,56.5201 3.1296,-44.47141 c 1.8403,-26.14991 5.9347,-44.39994 15.09,-67.20527 2.2339,-5.56452 1.5133,-3.66676 3.3249,-7.9719 0.6094,-1.44813 1.0141,0.62251 -3.2533,-6.71456 -2.3737,-4.08112 -6.1665,-8.84315 -7.4553,-10.75411 -5.5452,-8.22267 -21.1032,-27.71581 -25.3321,-31.73938 l -4.6012,-4.37771 -0.076,57.93526 c -0.062,46.42823 -0.7776,65.39494 -3.6054,95.49314 -1.9407,20.65684 -4.2208,40.74092 -5.0667,44.6313 -0.846,3.89036 -1.9977,12.91603 -2.5596,20.05704 -3.6612,46.5387 -5.4049,14.31088 -6.9806,-129.025 l -1.1866,-107.92658 -8.7255,8.11478 c -8.2232,7.64723 -34.2831,38.71146 -34.2831,40.86608 0,0.54729 2.2208,7.92795 4.9351,16.40146 5.5918,17.45652 10.4716,43.96575 12.8291,69.69322 1.8763,20.47631 3.6789,60.4097 2.6208,58.05623 -0.4014,-0.89264 -3.0005,-15.49924 -5.7759,-32.45913 -8.792,-53.72663 -19.18939,-93.5435 -24.70795,-94.6194 -1.37656,-0.26837 -7.88367,4.64752 -14.46024,10.92421 -12.41567,11.84949 -20.79424,16.8795 -82.55602,49.56181 -67.58017,35.76123 -116.35881,76.08236 -159.48572,131.83322 -33.67095,43.527 -60.3795,97.8586 -75.85988,154.31718 -8.84801,32.26969 -22.29479,104.09045 -19.93105,106.45418 0.35431,0.35433 4.07465,-0.41657 8.26742,-1.71308 4.19278,-1.29651 13.46586,-4.08212 20.60687,-6.19023 z" />
    <style>
        path {
            fill: #000;
        }

        @media (prefers-color-scheme: dark) {
            path {
                fill: #FFF;
            }
        }
    </style>
</svg>